<?xml version="1.0" encoding="UTF-8" standalone="no"?>
<!DOCTYPE svg PUBLIC "-//W3C//DTD SVG 1.1//EN"
 "http://www.w3.org/Graphics/SVG/1.1/DTD/svg11.dtd">
<!-- Generated by graphviz version 2.38.0 (20140413.2041)
 -->
<!-- Title: Q Pages: 1 -->
<svg width="1239pt" height="722pt"
 viewBox="0.00 0.00 1238.50 722.00" xmlns="http://www.w3.org/2000/svg" xmlns:xlink="http://www.w3.org/1999/xlink">
<g id="graph0" class="graph" transform="scale(1 1) rotate(0) translate(4 718)">
<title>Q</title>
<polygon fill="white" stroke="none" points="-4,4 -4,-718 1234.5,-718 1234.5,4 -4,4"/>
<!-- n1 -->
<g id="node1" class="node"><title>n1</title>
<polygon fill="none" stroke="black" points="813,-675.5 813,-713.5 999,-713.5 999,-675.5 813,-675.5"/>
<text text-anchor="middle" x="906" y="-698.3" font-family="Times New Roman,serif" font-size="14.00">1 Deep Learning Prerequisites:</text>
<text text-anchor="middle" x="906" y="-683.3" font-family="Times New Roman,serif" font-size="14.00">The Numpy Stack in Python</text>
</g>
<!-- n2 -->
<g id="node2" class="node"><title>n2</title>
<polygon fill="none" stroke="black" points="595,-600.5 595,-638.5 795,-638.5 795,-600.5 595,-600.5"/>
<text text-anchor="middle" x="695" y="-623.3" font-family="Times New Roman,serif" font-size="14.00">2 Tensorflow 2.0: Deep Learning</text>
<text text-anchor="middle" x="695" y="-608.3" font-family="Times New Roman,serif" font-size="14.00">and Artificial Intelligence</text>
</g>
<!-- n1&#45;&gt;n2 -->
<g id="edge1" class="edge"><title>n1&#45;&gt;n2</title>
<path fill="none" stroke="black" d="M853.843,-675.455C824.551,-665.321 787.814,-652.611 757.05,-641.968"/>
<polygon fill="black" stroke="black" points="757.883,-638.552 747.289,-638.59 755.595,-645.168 757.883,-638.552"/>
</g>
<!-- n3 -->
<g id="node3" class="node"><title>n3</title>
<polygon fill="none" stroke="black" points="813,-600.5 813,-638.5 999,-638.5 999,-600.5 813,-600.5"/>
<text text-anchor="middle" x="906" y="-623.3" font-family="Times New Roman,serif" font-size="14.00">3 Deep Learning Prerequisites:</text>
<text text-anchor="middle" x="906" y="-608.3" font-family="Times New Roman,serif" font-size="14.00">Linear Regression in Python</text>
</g>
<!-- n1&#45;&gt;n3 -->
<g id="edge2" class="edge"><title>n1&#45;&gt;n3</title>
<path fill="none" stroke="black" d="M906,-675.455C906,-667.383 906,-657.676 906,-648.682"/>
<polygon fill="black" stroke="black" points="909.5,-648.59 906,-638.59 902.5,-648.59 909.5,-648.59"/>
</g>
<!-- n6 -->
<g id="node6" class="node"><title>n6</title>
<polygon fill="none" stroke="black" points="1005.5,-525.5 1005.5,-563.5 1184.5,-563.5 1184.5,-525.5 1005.5,-525.5"/>
<text text-anchor="middle" x="1095" y="-548.3" font-family="Times New Roman,serif" font-size="14.00">6 Bayesian Machine Learning</text>
<text text-anchor="middle" x="1095" y="-533.3" font-family="Times New Roman,serif" font-size="14.00">in Python: A/B Testing</text>
</g>
<!-- n1&#45;&gt;n6 -->
<g id="edge5" class="edge"><title>n1&#45;&gt;n6</title>
<path fill="none" stroke="black" d="M947.095,-675.419C966.481,-665.945 989.386,-653.329 1008,-639 1033.63,-619.267 1058.31,-591.657 1074.79,-571.558"/>
<polygon fill="black" stroke="black" points="1077.56,-573.698 1081.12,-563.718 1072.11,-569.302 1077.56,-573.698"/>
</g>
<!-- n4 -->
<g id="node4" class="node"><title>n4</title>
<polygon fill="none" stroke="black" points="790,-525.5 790,-563.5 976,-563.5 976,-525.5 790,-525.5"/>
<text text-anchor="middle" x="883" y="-548.3" font-family="Times New Roman,serif" font-size="14.00">4 Deep Learning Prerequisites:</text>
<text text-anchor="middle" x="883" y="-533.3" font-family="Times New Roman,serif" font-size="14.00">Logistic Regression in Python</text>
</g>
<!-- n3&#45;&gt;n4 -->
<g id="edge3" class="edge"><title>n3&#45;&gt;n4</title>
<path fill="none" stroke="black" d="M900.315,-600.455C897.744,-592.295 894.647,-582.465 891.787,-573.389"/>
<polygon fill="black" stroke="black" points="895.043,-572.076 888.7,-563.59 888.367,-574.18 895.043,-572.076"/>
</g>
<!-- n5 -->
<g id="node5" class="node"><title>n5</title>
<polygon fill="none" stroke="black" points="365.5,-375.5 365.5,-413.5 538.5,-413.5 538.5,-375.5 365.5,-375.5"/>
<text text-anchor="middle" x="452" y="-398.3" font-family="Times New Roman,serif" font-size="14.00">5 Data Science: Supervised</text>
<text text-anchor="middle" x="452" y="-383.3" font-family="Times New Roman,serif" font-size="14.00">Machine Learning in Python</text>
</g>
<!-- n4&#45;&gt;n5 -->
<g id="edge4" class="edge"><title>n4&#45;&gt;n5</title>
<path fill="none" stroke="black" d="M830.151,-525.352C750.284,-497.927 599.156,-446.032 514.134,-416.836"/>
<polygon fill="black" stroke="black" points="515.201,-413.502 504.607,-413.564 512.928,-420.122 515.201,-413.502"/>
</g>
<!-- n7 -->
<g id="node7" class="node"><title>n7</title>
<polygon fill="none" stroke="black" points="815,-450.5 815,-488.5 951,-488.5 951,-450.5 815,-450.5"/>
<text text-anchor="middle" x="883" y="-473.3" font-family="Times New Roman,serif" font-size="14.00">7 Data Science: Deep</text>
<text text-anchor="middle" x="883" y="-458.3" font-family="Times New Roman,serif" font-size="14.00">Learning in Python</text>
</g>
<!-- n4&#45;&gt;n7 -->
<g id="edge6" class="edge"><title>n4&#45;&gt;n7</title>
<path fill="none" stroke="black" d="M883,-525.455C883,-517.383 883,-507.676 883,-498.682"/>
<polygon fill="black" stroke="black" points="886.5,-498.59 883,-488.59 879.5,-498.59 886.5,-498.59"/>
</g>
<!-- n9 -->
<g id="node9" class="node"><title>n9</title>
<polygon fill="none" stroke="black" points="1.5,-300.5 1.5,-338.5 216.5,-338.5 216.5,-300.5 1.5,-300.5"/>
<text text-anchor="middle" x="109" y="-323.3" font-family="Times New Roman,serif" font-size="14.00">9 Ensemble Machine Learning in</text>
<text text-anchor="middle" x="109" y="-308.3" font-family="Times New Roman,serif" font-size="14.00">Python: Random Forest, AdaBoost</text>
</g>
<!-- n5&#45;&gt;n9 -->
<g id="edge8" class="edge"><title>n5&#45;&gt;n9</title>
<path fill="none" stroke="black" d="M367.213,-375.455C317.649,-364.906 254.971,-351.567 203.78,-340.672"/>
<polygon fill="black" stroke="black" points="204.212,-337.185 193.702,-338.527 202.755,-344.032 204.212,-337.185"/>
</g>
<!-- n11 -->
<g id="node11" class="node"><title>n11</title>
<polygon fill="none" stroke="black" points="463.5,-300.5 463.5,-338.5 692.5,-338.5 692.5,-300.5 463.5,-300.5"/>
<text text-anchor="middle" x="578" y="-323.3" font-family="Times New Roman,serif" font-size="14.00">11 Cluster Analysis and Unsupervised</text>
<text text-anchor="middle" x="578" y="-308.3" font-family="Times New Roman,serif" font-size="14.00">Machine Learning in Python</text>
</g>
<!-- n5&#45;&gt;n11 -->
<g id="edge10" class="edge"><title>n5&#45;&gt;n11</title>
<path fill="none" stroke="black" d="M483.146,-375.455C499.653,-365.891 520.12,-354.033 537.812,-343.783"/>
<polygon fill="black" stroke="black" points="539.877,-346.632 546.776,-338.59 536.368,-340.575 539.877,-346.632"/>
</g>
<!-- n13 -->
<g id="node13" class="node"><title>n13</title>
<polygon fill="none" stroke="black" points="235,-300.5 235,-338.5 445,-338.5 445,-300.5 235,-300.5"/>
<text text-anchor="middle" x="340" y="-323.3" font-family="Times New Roman,serif" font-size="14.00">13 Data Science: Natural Language</text>
<text text-anchor="middle" x="340" y="-308.3" font-family="Times New Roman,serif" font-size="14.00">Processing (NLP) in Python</text>
</g>
<!-- n5&#45;&gt;n13 -->
<g id="edge12" class="edge"><title>n5&#45;&gt;n13</title>
<path fill="none" stroke="black" d="M424.315,-375.455C409.776,-365.979 391.782,-354.251 376.156,-344.066"/>
<polygon fill="black" stroke="black" points="378.044,-341.119 367.755,-338.59 374.222,-346.983 378.044,-341.119"/>
</g>
<!-- n15 -->
<g id="node15" class="node"><title>n15</title>
<polygon fill="none" stroke="black" points="1012.5,-450.5 1012.5,-488.5 1219.5,-488.5 1219.5,-450.5 1012.5,-450.5"/>
<text text-anchor="middle" x="1116" y="-473.3" font-family="Times New Roman,serif" font-size="14.00">15 Artificial Intelligence:</text>
<text text-anchor="middle" x="1116" y="-458.3" font-family="Times New Roman,serif" font-size="14.00">Reinforcement Learning in Python</text>
</g>
<!-- n6&#45;&gt;n15 -->
<g id="edge14" class="edge"><title>n6&#45;&gt;n15</title>
<path fill="none" stroke="black" d="M1100.19,-525.455C1102.54,-517.295 1105.37,-507.465 1107.98,-498.389"/>
<polygon fill="black" stroke="black" points="1111.39,-499.168 1110.8,-488.59 1104.67,-497.233 1111.39,-499.168"/>
</g>
<!-- n8 -->
<g id="node8" class="node"><title>n8</title>
<polygon fill="none" stroke="black" points="822,-375.5 822,-413.5 944,-413.5 944,-375.5 822,-375.5"/>
<text text-anchor="middle" x="883" y="-398.3" font-family="Times New Roman,serif" font-size="14.00">8 Modern Deep</text>
<text text-anchor="middle" x="883" y="-383.3" font-family="Times New Roman,serif" font-size="14.00">Learning in Python</text>
</g>
<!-- n7&#45;&gt;n8 -->
<g id="edge7" class="edge"><title>n7&#45;&gt;n8</title>
<path fill="none" stroke="black" d="M883,-450.455C883,-442.383 883,-432.676 883,-423.682"/>
<polygon fill="black" stroke="black" points="886.5,-423.59 883,-413.59 879.5,-423.59 886.5,-423.59"/>
</g>
<!-- n10 -->
<g id="node10" class="node"><title>n10</title>
<polygon fill="none" stroke="black" points="783,-300.5 783,-338.5 983,-338.5 983,-300.5 783,-300.5"/>
<text text-anchor="middle" x="883" y="-323.3" font-family="Times New Roman,serif" font-size="14.00">10 Deep Learning: Convolutional</text>
<text text-anchor="middle" x="883" y="-308.3" font-family="Times New Roman,serif" font-size="14.00">Neural Networks in Python</text>
</g>
<!-- n8&#45;&gt;n10 -->
<g id="edge9" class="edge"><title>n8&#45;&gt;n10</title>
<path fill="none" stroke="black" d="M883,-375.455C883,-367.383 883,-357.676 883,-348.682"/>
<polygon fill="black" stroke="black" points="886.5,-348.59 883,-338.59 879.5,-348.59 886.5,-348.59"/>
</g>
<!-- n23 -->
<g id="node23" class="node"><title>n23</title>
<polygon fill="none" stroke="black" points="0,-225.5 0,-263.5 218,-263.5 218,-225.5 0,-225.5"/>
<text text-anchor="middle" x="109" y="-248.3" font-family="Times New Roman,serif" font-size="14.00">23 Machine Learning and AI:</text>
<text text-anchor="middle" x="109" y="-233.3" font-family="Times New Roman,serif" font-size="14.00">Support Vector Machines in Python</text>
</g>
<!-- n9&#45;&gt;n23 -->
<g id="edge22" class="edge"><title>n9&#45;&gt;n23</title>
<path fill="none" stroke="black" d="M109,-300.455C109,-292.383 109,-282.676 109,-273.682"/>
<polygon fill="black" stroke="black" points="112.5,-273.59 109,-263.59 105.5,-273.59 112.5,-273.59"/>
</g>
<!-- n12 -->
<g id="node12" class="node"><title>n12</title>
<polygon fill="none" stroke="black" points="599.5,-225.5 599.5,-263.5 742.5,-263.5 742.5,-225.5 599.5,-225.5"/>
<text text-anchor="middle" x="671" y="-248.3" font-family="Times New Roman,serif" font-size="14.00">12 Unsupervised Deep</text>
<text text-anchor="middle" x="671" y="-233.3" font-family="Times New Roman,serif" font-size="14.00">Learning in Python</text>
</g>
<!-- n10&#45;&gt;n12 -->
<g id="edge11" class="edge"><title>n10&#45;&gt;n12</title>
<path fill="none" stroke="black" d="M830.595,-300.455C801.165,-290.321 764.254,-277.611 733.344,-266.968"/>
<polygon fill="black" stroke="black" points="734.131,-263.537 723.536,-263.59 731.852,-270.156 734.131,-263.537"/>
</g>
<!-- n18 -->
<g id="node18" class="node"><title>n18</title>
<polygon fill="none" stroke="black" points="1023.5,-225.5 1023.5,-263.5 1230.5,-263.5 1230.5,-225.5 1023.5,-225.5"/>
<text text-anchor="middle" x="1127" y="-248.3" font-family="Times New Roman,serif" font-size="14.00">18 Advanced AI: Deep</text>
<text text-anchor="middle" x="1127" y="-233.3" font-family="Times New Roman,serif" font-size="14.00">Reinforcement Learning in Python</text>
</g>
<!-- n10&#45;&gt;n18 -->
<g id="edge26" class="edge"><title>n10&#45;&gt;n18</title>
<path fill="none" stroke="black" d="M943.315,-300.455C977.628,-290.189 1020.77,-277.28 1056.63,-266.554"/>
<polygon fill="black" stroke="black" points="1057.96,-269.81 1066.53,-263.59 1055.95,-263.104 1057.96,-269.81"/>
</g>
<!-- n20 -->
<g id="node20" class="node"><title>n20</title>
<polygon fill="none" stroke="black" points="760.5,-225.5 760.5,-263.5 1005.5,-263.5 1005.5,-225.5 760.5,-225.5"/>
<text text-anchor="middle" x="883" y="-248.3" font-family="Times New Roman,serif" font-size="14.00">20 Deep Learning: Advanced</text>
<text text-anchor="middle" x="883" y="-233.3" font-family="Times New Roman,serif" font-size="14.00">Computer Vision (GANs, SSD, +More!)</text>
</g>
<!-- n10&#45;&gt;n20 -->
<g id="edge19" class="edge"><title>n10&#45;&gt;n20</title>
<path fill="none" stroke="black" d="M883,-300.455C883,-292.383 883,-282.676 883,-273.682"/>
<polygon fill="black" stroke="black" points="886.5,-273.59 883,-263.59 879.5,-273.59 886.5,-273.59"/>
</g>
<!-- n14 -->
<g id="node14" class="node"><title>n14</title>
<polygon fill="none" stroke="black" points="368.5,-225.5 368.5,-263.5 581.5,-263.5 581.5,-225.5 368.5,-225.5"/>
<text text-anchor="middle" x="475" y="-248.3" font-family="Times New Roman,serif" font-size="14.00">14 Unsupervised Machine Learning</text>
<text text-anchor="middle" x="475" y="-233.3" font-family="Times New Roman,serif" font-size="14.00">Hidden Markov Models in Python</text>
</g>
<!-- n11&#45;&gt;n14 -->
<g id="edge13" class="edge"><title>n11&#45;&gt;n14</title>
<path fill="none" stroke="black" d="M552.539,-300.455C539.417,-291.154 523.233,-279.684 509.051,-269.633"/>
<polygon fill="black" stroke="black" points="510.707,-266.517 500.525,-263.59 506.66,-272.228 510.707,-266.517"/>
</g>
<!-- n16 -->
<g id="node16" class="node"><title>n16</title>
<polygon fill="none" stroke="black" points="386,-150.5 386,-188.5 562,-188.5 562,-150.5 386,-150.5"/>
<text text-anchor="middle" x="474" y="-173.3" font-family="Times New Roman,serif" font-size="14.00">16 Deep Learning: Recurrent</text>
<text text-anchor="middle" x="474" y="-158.3" font-family="Times New Roman,serif" font-size="14.00">Neural Networks in Python</text>
</g>
<!-- n12&#45;&gt;n16 -->
<g id="edge24" class="edge"><title>n12&#45;&gt;n16</title>
<path fill="none" stroke="black" d="M622.303,-225.455C595.073,-215.365 560.953,-202.721 532.306,-192.106"/>
<polygon fill="black" stroke="black" points="533.412,-188.783 522.819,-188.59 530.98,-195.347 533.412,-188.783"/>
</g>
<!-- n19 -->
<g id="node19" class="node"><title>n19</title>
<polygon fill="none" stroke="black" points="580,-150.5 580,-188.5 762,-188.5 762,-150.5 580,-150.5"/>
<text text-anchor="middle" x="671" y="-173.3" font-family="Times New Roman,serif" font-size="14.00">19 Deep Learning: GANs and</text>
<text text-anchor="middle" x="671" y="-158.3" font-family="Times New Roman,serif" font-size="14.00">Variational Autoencoders</text>
</g>
<!-- n12&#45;&gt;n19 -->
<g id="edge18" class="edge"><title>n12&#45;&gt;n19</title>
<path fill="none" stroke="black" d="M671,-225.455C671,-217.383 671,-207.676 671,-198.682"/>
<polygon fill="black" stroke="black" points="674.5,-198.59 671,-188.59 667.5,-198.59 674.5,-198.59"/>
</g>
<!-- n22 -->
<g id="node22" class="node"><title>n22</title>
<polygon fill="none" stroke="black" points="780.5,-150.5 780.5,-188.5 971.5,-188.5 971.5,-150.5 780.5,-150.5"/>
<text text-anchor="middle" x="876" y="-173.3" font-family="Times New Roman,serif" font-size="14.00">22 Recommender Systems and</text>
<text text-anchor="middle" x="876" y="-158.3" font-family="Times New Roman,serif" font-size="14.00">Deep Learning in Python</text>
</g>
<!-- n12&#45;&gt;n22 -->
<g id="edge21" class="edge"><title>n12&#45;&gt;n22</title>
<path fill="none" stroke="black" d="M721.674,-225.455C750.133,-215.321 785.825,-202.611 815.714,-191.968"/>
<polygon fill="black" stroke="black" points="816.952,-195.242 825.198,-188.59 814.604,-188.648 816.952,-195.242"/>
</g>
<!-- n17 -->
<g id="node17" class="node"><title>n17</title>
<polygon fill="none" stroke="black" points="309,-75.5 309,-113.5 505,-113.5 505,-75.5 309,-75.5"/>
<text text-anchor="middle" x="407" y="-98.3" font-family="Times New Roman,serif" font-size="14.00">17 Natural Language Processing</text>
<text text-anchor="middle" x="407" y="-83.3" font-family="Times New Roman,serif" font-size="14.00">with Deep Learning in Python</text>
</g>
<!-- n13&#45;&gt;n17 -->
<g id="edge16" class="edge"><title>n13&#45;&gt;n17</title>
<path fill="none" stroke="black" d="M342.142,-300.264C346.246,-268.769 356.672,-202.509 377,-150 380.608,-140.68 385.527,-130.977 390.338,-122.386"/>
<polygon fill="black" stroke="black" points="393.461,-123.977 395.449,-113.571 387.406,-120.466 393.461,-123.977"/>
</g>
<!-- n14&#45;&gt;n16 -->
<g id="edge15" class="edge"><title>n14&#45;&gt;n16</title>
<path fill="none" stroke="black" d="M474.753,-225.455C474.642,-217.383 474.509,-207.676 474.386,-198.682"/>
<polygon fill="black" stroke="black" points="477.885,-198.541 474.248,-188.59 470.885,-198.637 477.885,-198.541"/>
</g>
<!-- n15&#45;&gt;n18 -->
<g id="edge17" class="edge"><title>n15&#45;&gt;n18</title>
<path fill="none" stroke="black" d="M1116.9,-450.251C1118.81,-411.442 1123.3,-320.471 1125.6,-273.966"/>
<polygon fill="black" stroke="black" points="1129.11,-273.849 1126.1,-263.688 1122.11,-273.504 1129.11,-273.849"/>
</g>
<!-- n16&#45;&gt;n17 -->
<g id="edge25" class="edge"><title>n16&#45;&gt;n17</title>
<path fill="none" stroke="black" d="M457.438,-150.455C449.305,-141.593 439.363,-130.762 430.463,-121.065"/>
<polygon fill="black" stroke="black" points="432.944,-118.591 423.603,-113.59 427.787,-123.324 432.944,-118.591"/>
</g>
<!-- n21 -->
<g id="node21" class="node"><title>n21</title>
<polygon fill="none" stroke="black" points="317.5,-0.5 317.5,-38.5 496.5,-38.5 496.5,-0.5 317.5,-0.5"/>
<text text-anchor="middle" x="407" y="-23.3" font-family="Times New Roman,serif" font-size="14.00">21 Deep Learning: Advanced</text>
<text text-anchor="middle" x="407" y="-8.3" font-family="Times New Roman,serif" font-size="14.00">NLP and RNNs</text>
</g>
<!-- n17&#45;&gt;n21 -->
<g id="edge20" class="edge"><title>n17&#45;&gt;n21</title>
<path fill="none" stroke="black" d="M407,-75.4551C407,-67.3828 407,-57.6764 407,-48.6817"/>
<polygon fill="black" stroke="black" points="410.5,-48.5903 407,-38.5904 403.5,-48.5904 410.5,-48.5903"/>
</g>
<!-- n24 -->
<g id="node24" class="node"><title>n24</title>
<polygon fill="none" stroke="black" points="1023.5,-150.5 1023.5,-188.5 1230.5,-188.5 1230.5,-150.5 1023.5,-150.5"/>
<text text-anchor="middle" x="1127" y="-173.3" font-family="Times New Roman,serif" font-size="14.00">24 Cutting&#45;Edge AI: Deep</text>
<text text-anchor="middle" x="1127" y="-158.3" font-family="Times New Roman,serif" font-size="14.00">Reinforcement Learning in Python</text>
</g>
<!-- n18&#45;&gt;n24 -->
<g id="edge23" class="edge"><title>n18&#45;&gt;n24</title>
<path fill="none" stroke="black" d="M1127,-225.455C1127,-217.383 1127,-207.676 1127,-198.682"/>
<polygon fill="black" stroke="black" points="1130.5,-198.59 1127,-188.59 1123.5,-198.59 1130.5,-198.59"/>
</g>
<!-- n25 -->
<g id="node25" class="node"><title>n25</title>
<polygon fill="none" stroke="black" points="1017.5,-675.5 1017.5,-713.5 1188.5,-713.5 1188.5,-675.5 1017.5,-675.5"/>
<text text-anchor="middle" x="1103" y="-698.3" font-family="Times New Roman,serif" font-size="14.00">25 PyTorch: Deep Learning</text>
<text text-anchor="middle" x="1103" y="-683.3" font-family="Times New Roman,serif" font-size="14.00">and Artificial Intelligence</text>
</g>
</g>
</svg>
